<svg width="86" height="12" viewBox="0 0 86 12" fill="none" xmlns="http://www.w3.org/2000/svg">
<g clip-path="url(#clip0_7677_3534)">
<path d="M9.53291 0.121826C8.98947 0.121826 8.52754 0.349781 8.16525 0.809913L2.82138 7.62324L2.59042 0.826799C2.55872 0.349781 2.27794 0.121826 1.73449 0.138712C1.38578 0.138712 1.05519 0.244247 0.760822 0.472202C0.430226 0.704378 0.217378 0.978769 0.0996314 1.31226C0.0362296 1.48111 0 1.63308 0 1.77239L0.760822 11.3676C0.760822 11.6842 0.923855 11.8404 1.25445 11.8404C1.58504 11.8404 1.86582 11.6842 2.11037 11.3676L10.0265 1.77239C10.1262 1.62042 10.2077 1.46423 10.2711 1.31226C10.3888 0.978769 10.3888 0.704378 10.2575 0.472202C10.1081 0.244247 9.87709 0.121826 9.53291 0.121826Z" fill="#000"/>
<path d="M50.9481 11.5499C50.9481 11.8707 51.1292 12.0227 51.4417 12.0227C51.7723 12.0227 52.0531 11.8707 52.3021 11.5499L60.2318 1.93776C60.3314 1.80267 60.413 1.6507 60.4628 1.49873C60.5941 1.16102 60.576 0.88663 60.4447 0.658674C60.2952 0.426498 60.0643 0.304077 59.7201 0.304077C59.1766 0.304077 58.7147 0.536254 58.3524 0.992165L53.0086 7.8055L52.7776 1.00905C52.7459 0.536254 52.4652 0.304077 51.9217 0.304077C51.573 0.304077 51.247 0.426498 50.9345 0.658674C50.6356 0.88663 50.4046 1.17791 50.2869 1.49873C50.2235 1.66759 50.1918 1.81956 50.1918 1.95464L50.9481 11.5499Z" fill="#000"/>
<path d="M12.4992 5.91425C12.9793 4.90533 13.7174 4.04839 14.7228 3.38985C15.7327 2.71865 16.7517 2.38516 17.7752 2.38516C18.8122 2.38516 19.5232 2.71865 19.9036 3.37719C20.2795 4.04839 20.2478 4.88845 19.7723 5.91425C19.2923 6.91894 18.5677 7.759 17.5442 8.43442C16.5569 9.10562 15.5335 9.44333 14.4919 9.44333C13.4548 9.44333 12.7438 9.10562 12.3679 8.43442C11.9875 7.77588 12.0237 6.91894 12.4992 5.91425ZM13.405 11.7651C15.153 11.7651 16.883 11.1994 18.5994 10.0681C20.3293 8.95365 21.5657 7.54793 22.3446 5.89736C23.119 4.2468 23.1507 2.85796 22.4895 1.74351C21.8148 0.612176 20.6101 0.0465088 18.862 0.0465088C17.114 0.0465088 15.384 0.612176 13.6676 1.74351C11.9377 2.87062 10.7013 4.26368 9.92692 5.91425C9.17063 7.56481 9.12081 8.95365 9.77747 10.085C10.4568 11.2121 11.6569 11.7651 13.405 11.7651Z" fill="#000"/>
<path d="M21.8782 11.4738H29.4819C29.8125 11.4738 30.1385 11.3514 30.4872 11.1235C30.8178 10.8913 31.0624 10.6169 31.2118 10.2961C31.3613 9.99214 31.3794 9.71775 31.2481 9.48979C31.1122 9.24073 30.8993 9.13519 30.5688 9.13519H26.3299L34.8891 1.05545C34.9707 0.97946 35.0386 0.88659 35.0884 0.793719C35.1382 0.671299 35.1518 0.565764 35.102 0.456007C35.0386 0.367358 34.9571 0.320923 34.8212 0.320923H28.3089C27.9829 0.337808 27.6523 0.443343 27.3036 0.671299C26.9594 0.899254 26.7284 1.17787 26.5654 1.49869C26.4295 1.81952 26.4159 2.09391 26.5473 2.32186C26.6605 2.54982 26.8914 2.65957 27.222 2.65957H30.2382L21.8465 10.7098C21.7332 10.8322 21.6517 10.9251 21.6019 11.0306C21.4661 11.3219 21.5521 11.4738 21.8782 11.4738Z" fill="#000"/>
<path d="M44.5352 5.89728C44.0552 6.90619 43.3125 7.74625 42.3252 8.41745C41.3199 9.07599 40.2964 9.40948 39.2593 9.40948C38.2177 9.40948 37.5112 9.07599 37.1308 8.41745C36.7504 7.74625 36.7866 6.90619 37.2622 5.89728C37.7422 4.8757 38.4849 4.03142 39.4903 3.36022C40.4956 2.7059 41.501 2.36819 42.5381 2.36819C43.5797 2.36819 44.2861 2.7059 44.6666 3.36022C45.047 4.03142 45.0107 4.8757 44.5352 5.89728ZM47.257 1.70966C46.5777 0.595208 45.3776 0.029541 43.6295 0.029541C41.8814 0.029541 40.1469 0.595208 38.4351 1.72654C36.7051 2.85788 35.4643 4.24671 34.6899 5.89728C33.9336 7.54784 33.8837 8.93668 34.5404 10.068C35.2197 11.1825 36.4243 11.7481 38.1679 11.7481C39.916 11.7481 41.6505 11.1825 43.3623 10.0511C45.0968 8.92402 46.3331 7.53096 47.1075 5.88039C47.8638 4.23405 47.9317 2.84099 47.257 1.70966Z" fill="#000"/>
<path d="M70.4847 5.86774C70.0227 6.87665 69.28 7.72937 68.2747 8.38791C67.2693 9.05911 66.2503 9.39682 65.2087 9.39682C64.1898 9.39682 63.4788 9.05911 63.0848 8.38791C62.7044 7.72937 62.7542 6.88931 63.2161 5.86774C63.6916 4.85882 64.4343 4.01877 65.4397 3.34757C66.4451 2.67214 67.4686 2.35132 68.492 2.33865C69.5291 2.33865 70.2401 2.67214 70.616 3.34757C71.0145 4.00188 70.9647 4.84194 70.4847 5.86774ZM69.5789 0C67.849 0.0168856 66.1009 0.578331 64.3845 1.70966C62.6727 2.82411 61.4182 4.23406 60.6438 5.8804C59.883 7.5183 59.8332 8.90714 60.4944 10.0385C61.1691 11.1698 62.3738 11.7355 64.1218 11.7355C65.8699 11.7355 67.5999 11.1698 69.3163 10.0385C71.0462 8.90714 72.2826 7.5183 73.057 5.86774C73.8314 4.21717 73.8812 2.82411 73.2064 1.697C72.5316 0.578331 71.327 0 69.5789 0Z" fill="#000"/>
<path d="M85.8188 0.426262C85.7554 0.337613 85.6694 0.274292 85.5381 0.274292L79.0258 0.291178C78.6952 0.291178 78.3646 0.396712 78.0204 0.641553C77.6898 0.869509 77.4407 1.1439 77.2958 1.45206C77.1464 1.77289 77.1283 2.04728 77.2641 2.27523C77.3955 2.50741 77.6083 2.61294 77.9389 2.61294H80.9731L72.5633 10.6631C72.4456 10.7856 72.3641 10.8911 72.3143 10.984C72.1829 11.2921 72.2645 11.4272 72.595 11.4272H80.1987C80.5248 11.4272 80.8554 11.3048 81.2041 11.0768C81.5302 10.8489 81.7792 10.5872 81.9287 10.2494C82.0781 9.94551 82.0917 9.67112 81.9604 9.44316C81.8472 9.21099 81.6162 9.08857 81.2856 9.08857L77.0468 9.10545L85.606 1.02148C85.7056 0.945494 85.7554 0.856845 85.8007 0.763974C85.8686 0.624668 85.8686 0.519133 85.8188 0.426262Z" fill="#000"/>
</g>
<defs>
<clipPath id="clip0_7677_3534">
<rect width="86" height="11.8199" fill="white"/>
</clipPath>
</defs>
</svg>
