<?xml version="1.0" encoding="UTF-8"?> <svg xmlns="http://www.w3.org/2000/svg" width="139" height="48" viewBox="0 0 139 48" fill="none"><g clip-path="url(#clip0_2346_18001)"><path d="M40.1484 46.9022L40.824 46.7092C40.8602 46.9022 40.9446 47.059 41.0894 47.1797C41.2221 47.3003 41.391 47.3606 41.584 47.3606C42.1027 47.3606 42.3681 46.9866 42.3681 46.2508V42.668H43.0919V46.2749C43.0919 46.4317 43.0798 46.5886 43.0557 46.7333C43.0316 46.8781 42.9833 47.0349 42.923 47.1917C42.8627 47.3485 42.7662 47.4933 42.6697 47.6019C42.5611 47.7225 42.4163 47.8069 42.2475 47.8914C42.0665 47.9638 41.8614 48 41.6322 48C41.2462 48 40.9205 47.9035 40.6672 47.6984C40.4018 47.5054 40.2329 47.24 40.1484 46.9022Z" fill="#212B32"></path><path d="M48.7124 45.4904V47.2276H51.4267V47.879H47.9766V42.6797H51.3181V43.319H48.7124V44.8752H51.1613V45.5025H48.7124V45.4904Z" fill="#212B32"></path><path d="M56.3121 42.668L57.4582 46.8177H57.4702L58.6886 42.668H59.4848L60.7032 46.8177H60.7152L61.8612 42.668H62.6333L61.1013 47.8673H60.3413L59.0746 43.6813H59.0626L57.7959 47.8673H57.0359L55.5039 42.668H56.3121Z" fill="#212B32"></path><path d="M67.7476 45.4904V47.2276H70.4618V47.879H67.0117V42.6797H70.3533V43.319H67.7476V44.8752H70.1964V45.5025H67.7476V45.4904Z" fill="#212B32"></path><path d="M75.8332 42.668V47.2279H78.1614V47.8793H75.1094V42.68H75.8332V42.668Z" fill="#212B32"></path><path d="M83.2629 45.5633V47.8795H82.5391V42.6802H84.2038C84.7466 42.6802 85.193 42.8008 85.5428 43.03C85.8927 43.2592 86.0616 43.6211 86.0616 44.1278C86.0616 44.5017 85.9409 44.8033 85.7117 45.0446C85.4825 45.2859 85.1809 45.4306 84.7949 45.503L86.2546 47.8915H85.3739L84.047 45.5754H83.2629V45.5633ZM83.2629 43.2833V44.9481H84.0952C84.9035 44.9481 85.3136 44.6706 85.3136 44.1157C85.3136 43.5729 84.9276 43.2954 84.1435 43.2954H83.2629V43.2833Z" fill="#212B32"></path><path d="M92.7093 45.6235V47.8673H91.9735V45.6235L90.0312 42.668H90.9239L92.3595 45.0203L93.8071 42.668H94.6515L92.7093 45.6235Z" fill="#212B32"></path><path d="M61.2447 5.03041C59.7006 3.47424 57.8791 2.23172 55.8162 1.33903C53.7413 0.446343 51.5096 0 49.1573 0C46.8049 0 44.5611 0.446343 42.4742 1.33903C40.3993 2.23172 38.5657 3.47424 37.0216 5.03041C35.4775 6.58658 34.2591 8.42021 33.3664 10.483C32.4737 12.5579 32.0273 14.8017 32.0273 17.1541C32.0273 19.5064 32.4737 21.7502 33.3664 23.8371C34.2591 25.912 35.4895 27.7577 37.0216 29.2898C38.5657 30.8339 40.3993 32.0643 42.4742 32.957C44.5611 33.8497 46.8049 34.2961 49.1573 34.2961C51.5096 34.2961 53.7413 33.8376 55.8162 32.957C57.8791 32.0643 59.7006 30.8339 61.2447 29.2898C62.7888 27.7457 64.0193 25.912 64.8999 23.8371C65.7926 21.7502 66.2389 19.5064 66.2389 17.1541C66.2389 14.8017 65.7926 12.5579 64.8999 10.483C64.0072 8.42021 62.7768 6.58658 61.2447 5.03041ZM60.3641 17.1541C60.3641 18.6982 60.0746 20.1699 59.4956 21.5089C58.9165 22.86 58.1083 24.0543 57.0949 25.0676C56.0816 26.0809 54.8753 26.9012 53.5242 27.4923C52.1731 28.0834 50.7134 28.373 49.1573 28.373C47.6132 28.373 46.1414 28.0714 44.7903 27.4923C43.4393 26.9012 42.2329 26.0809 41.2196 25.0676C40.2063 24.0543 39.386 22.86 38.7949 21.4969C38.2038 20.1578 37.9022 18.6861 37.9022 17.142C37.9022 15.5979 38.2038 14.1262 38.7949 12.7871C39.386 11.436 40.2063 10.2297 41.2196 9.21639C42.2329 8.20307 43.4393 7.38276 44.7903 6.79166C46.1414 6.20055 47.6011 5.91103 49.1573 5.91103C50.7014 5.91103 52.1731 6.21262 53.5242 6.79166C54.8753 7.38276 56.0816 8.20307 57.0949 9.21639C58.1083 10.2297 58.9165 11.424 59.4956 12.7751C60.0625 14.1382 60.3641 15.61 60.3641 17.1541Z" fill="#212B32"></path><path d="M136.822 10.483C135.929 8.42021 134.711 6.58658 133.167 5.03041C131.623 3.47424 129.801 2.23172 127.738 1.33903C125.675 0.446343 123.432 0 121.079 0C118.727 0 116.483 0.446343 114.396 1.33903C112.321 2.23172 110.488 3.47424 108.943 5.03041C107.399 6.58658 106.181 8.42021 105.288 10.483C104.396 12.5579 103.949 14.8017 103.949 17.1541C103.949 19.5064 104.396 21.7502 105.288 23.8371C106.181 25.912 107.411 27.7577 108.943 29.2898C110.488 30.8339 112.321 32.0643 114.396 32.957C116.483 33.8497 118.727 34.2961 121.079 34.2961C123.432 34.2961 125.663 33.8376 127.738 32.957C129.801 32.0643 131.623 30.8339 133.167 29.2898C134.711 27.7457 135.941 25.912 136.822 23.8371C137.714 21.7502 138.161 19.5064 138.161 17.1541C138.173 14.8017 137.714 12.5579 136.822 10.483ZM121.079 28.373C119.535 28.373 118.063 28.0714 116.712 27.4923C115.361 26.9012 114.155 26.0809 113.141 25.0676C112.128 24.0543 111.308 22.86 110.717 21.4969C110.126 20.1578 109.824 18.6861 109.824 17.142C109.824 15.5979 110.126 14.1262 110.717 12.7871C111.308 11.436 112.128 10.2297 113.141 9.21639C114.155 8.20307 115.361 7.38276 116.712 6.79166C118.063 6.20055 119.523 5.91103 121.079 5.91103C122.623 5.91103 124.095 6.21262 125.446 6.79166C126.797 7.38276 128.004 8.20307 129.017 9.21639C130.03 10.2297 130.838 11.424 131.417 12.7751C131.996 14.1262 132.286 15.5858 132.286 17.1299C132.286 18.674 131.996 20.1458 131.417 21.4848C130.838 22.8359 130.03 24.0302 129.017 25.0435C128.004 26.0568 126.797 26.8771 125.446 27.4682C124.095 28.0834 122.635 28.373 121.079 28.373Z" fill="#212B32"></path><path d="M29.8447 30.6771C29.0606 29.2054 28.2765 27.5648 27.5165 25.9724C25.8397 22.4741 24.766 20.2786 23.8613 19.4703C23.8251 19.4462 23.7406 19.3376 23.7406 19.3376C26.4549 17.3954 28.0593 14.1383 28.0593 10.833C28.0593 5.19939 23.6924 0.615319 18.2398 0.470559C18.0709 0.458496 17.902 0.458496 17.7331 0.458496H2.8952C1.30284 0.458496 0 1.76134 0 3.3537V31.7387C0 32.9571 0.989193 33.9463 2.20759 33.9463H3.66725C4.88565 33.9463 5.87484 32.9571 5.87484 31.7387V22.4258C5.87484 22.1966 5.97135 21.9795 6.12817 21.8106C6.29706 21.6538 6.50214 21.5573 6.7434 21.5573L17.142 21.6176C18.1191 21.6176 18.9997 22.1725 19.434 23.0531L24.2352 32.7159C24.6092 33.4758 25.3692 33.9463 26.2136 33.9463H27.8904C28.6745 33.9463 29.3863 33.5482 29.7844 32.8727C30.1945 32.1971 30.2186 31.3768 29.8447 30.6771ZM17.5401 15.6221H6.40563C6.11611 15.6221 5.88691 15.3929 5.88691 15.1034V6.90032C5.88691 6.6108 6.11611 6.38159 6.40563 6.38159H17.5401C20.0975 6.38159 22.1603 8.44442 22.1603 11.0018C22.1603 13.5593 20.0975 15.6221 17.5401 15.6221Z" fill="#212B32"></path><path d="M101.841 30.6771C101.057 29.2054 100.273 27.5648 99.5126 25.9724C97.8358 22.4741 96.7621 20.2786 95.8574 19.4703C95.8212 19.4462 95.7367 19.3376 95.7367 19.3376C98.451 17.3954 100.055 14.1383 100.055 10.833C100.055 5.19939 95.6885 0.615319 90.2359 0.470559C90.067 0.458496 89.8981 0.458496 89.7292 0.458496H74.8913C73.2989 0.458496 71.9961 1.76134 71.9961 3.3537V31.7387C71.9961 32.9571 72.9853 33.9463 74.2037 33.9463H75.6634C76.8817 33.9463 77.8709 32.9571 77.8709 31.7387V22.4258C77.8709 22.1966 77.9674 21.9795 78.1243 21.8106C78.2932 21.6538 78.4982 21.5573 78.7395 21.5573L89.1381 21.6176C90.1152 21.6176 90.9959 22.1725 91.4301 23.0531L96.2313 32.7159C96.6053 33.4758 97.3653 33.9463 98.2097 33.9463H99.8865C100.671 33.9463 101.382 33.5482 101.78 32.8727C102.191 32.1971 102.215 31.3768 101.841 30.6771ZM89.5483 15.6221H78.4138C78.1243 15.6221 77.8951 15.3929 77.8951 15.1034V6.90032C77.8951 6.6108 78.1243 6.38159 78.4138 6.38159H89.5483C92.1057 6.38159 94.1685 8.44442 94.1685 11.0018C94.1685 13.5593 92.0936 15.6221 89.5483 15.6221Z" fill="#212B32"></path></g><defs><clipPath id="clip0_2346_18001"><rect width="138.173" height="48" fill="white"></rect></clipPath></defs></svg> 