<?xml version="1.0" encoding="UTF-8"?> <svg xmlns="http://www.w3.org/2000/svg" width="160" height="39" viewBox="0 0 160 39" fill="none"><path d="M153.358 10.2914V12.3945C151.896 10.6942 149.726 9.66504 146.759 9.66504C140.958 9.66504 136.176 14.8108 136.176 21.4778C136.176 28.1451 140.958 33.2909 146.759 33.2909C149.726 33.2909 151.896 32.2617 153.358 30.5614V32.6645H160V10.2914H153.358ZM148.088 26.9369C145.032 26.9369 142.818 24.8339 142.818 21.4778C142.818 18.122 145.032 16.019 148.088 16.019C151.143 16.019 153.358 18.122 153.358 21.4778C153.358 24.8339 151.143 26.9369 148.088 26.9369Z" fill="#FEFEFE"></path><path d="M126.41 32.6646H133.053V0H126.41V32.6646Z" fill="#FEFEFE"></path><path d="M115.82 10.2915V22.5073C115.82 25.6843 114.138 27.116 111.702 27.116C109.577 27.116 107.85 25.8185 107.85 23.0441V10.2915H101.207V24.0286C101.207 30.0693 105.015 33.291 109.488 33.291C112.411 33.291 114.625 32.2169 115.82 30.5615V32.6646H122.463V10.2915H115.82Z" fill="#FEFEFE"></path><path d="M87.5404 16.8244C87.5404 16.019 88.2488 15.5713 89.4002 15.5713C90.8615 15.5713 91.7472 16.3768 92.367 17.5403L98.0354 14.4528C96.1754 11.2759 92.9871 9.66504 89.4002 9.66504C84.7947 9.66504 80.7207 12.126 80.7207 17.0033C80.7207 24.7446 91.6144 23.4468 91.6144 25.908C91.6144 26.8027 90.8173 27.2948 89.223 27.2948C87.2746 27.2948 86.0348 26.3552 85.4592 24.6549L79.7021 27.966C81.4291 31.5905 84.7947 33.2909 89.223 33.2909C94.0054 33.2909 98.434 31.0983 98.434 25.9524C98.434 17.6745 87.5404 19.3749 87.5404 16.8244Z" fill="#FEFEFE"></path><path d="M16.119 33.1809C19.2732 33.1809 22.2078 32.3076 24.6483 30.7698L21.178 24.696C19.7991 25.6647 18.0418 26.2005 16.119 26.2005C10.6278 26.2005 7.08521 22.4868 7.08521 16.8935C7.08521 11.3003 10.6278 7.58637 16.119 7.58637C19.2631 7.58637 21.9202 9.01825 23.293 11.4345L28.3392 6.33557C25.5055 2.79069 21.0698 0.605957 16.119 0.605957C6.77541 0.605957 0 7.67563 0 16.8935C0 26.1111 6.77541 33.1809 16.119 33.1809Z" fill="#FEFEFE"></path><path d="M38.8792 9.97082H48.5558C48.5975 9.97082 48.6454 9.96725 48.6605 10.0163C48.6626 10.0222 48.6639 10.0305 48.6639 10.0366L48.6651 28.6142H51.5016C51.5016 30.0965 51.4885 31.5371 51.5002 33.0514L51.5016 33.1296C51.5016 33.1733 51.4673 33.2063 51.4241 33.2063C51.3543 33.2063 51.2845 33.2063 51.2148 33.2063C49.1891 33.2063 47.1624 33.2624 45.136 33.2624C39.4576 33.288 36.4658 33.2885 36.1607 33.2645C32.4062 32.9669 29.0632 30.9504 27.1024 27.6562C24.0994 22.6125 25.276 16.0787 29.8559 12.4117C32.1047 10.1396 35.923 9.93761 38.8792 9.97082ZM37.2437 16.9624H35.3257V15.8122C35.5824 15.6944 35.761 15.4332 35.761 15.1299C35.761 14.7162 35.4292 14.3809 35.0199 14.3809C34.6105 14.3809 34.2787 14.7162 34.2787 15.1299C34.2787 15.4332 34.4574 15.6944 34.7141 15.8122V17.5804H37.1968C37.3006 17.8674 37.5732 18.0722 37.893 18.0722C38.3024 18.0722 38.6342 17.7369 38.6342 17.3234C38.6342 16.9098 38.3024 16.5745 37.893 16.5745C37.6132 16.5745 37.3698 16.7312 37.2437 16.9624ZM31.8169 22.2734C31.751 22.2513 31.6809 22.2391 31.6086 22.2391C31.5364 22.2391 31.4665 22.2513 31.4004 22.2734C31.1206 22.356 30.9094 22.6009 30.873 22.9005C30.8688 22.93 30.8665 22.9597 30.8665 22.989C30.8665 23.3075 31.0074 23.506 31.2188 23.6291C31.2457 23.6459 31.2738 23.6611 31.3028 23.6744V25.2015L32.2231 26.1314C32.2176 26.146 32.2126 26.1605 32.2083 26.1753C32.1939 26.1971 32.1848 26.2047 32.1814 26.3005C32.1532 26.5228 32.2236 26.7557 32.3928 26.9264C32.5092 27.0441 32.6546 27.1144 32.8056 27.1376C32.8437 27.1462 32.8825 27.151 32.9222 27.151C33.3322 27.151 33.6644 26.8151 33.6644 26.4011C33.6644 26.3609 33.6598 26.3215 33.6513 26.2833C33.6284 26.1305 33.5588 25.9835 33.4423 25.8661C33.2732 25.6952 33.0428 25.624 32.8227 25.6525C32.728 25.6558 32.7206 25.6649 32.699 25.6795C32.6844 25.684 32.6698 25.6891 32.6554 25.6945L31.9145 24.9459V23.6744C31.9436 23.6611 31.9716 23.6459 31.9986 23.6291C32.21 23.506 32.3508 23.3075 32.3508 22.989C32.3508 22.9597 32.3484 22.93 32.3443 22.9005C32.3081 22.6009 32.0968 22.356 31.8169 22.2734ZM31.8169 20.8492C32.0968 20.7666 32.3081 20.5217 32.3443 20.2221C32.3484 20.1926 32.3508 20.1629 32.3508 20.1336C32.3508 19.8151 32.21 19.6165 31.9986 19.4935C31.9716 19.4766 31.9436 19.4615 31.9145 19.4482V18.1767L32.6554 17.4281C32.6698 17.4335 32.6844 17.4386 32.699 17.4431C32.7206 17.4577 32.728 17.4668 32.8227 17.4701C33.0428 17.4986 33.2732 17.4274 33.4423 17.2565C33.5588 17.1391 33.6284 16.992 33.6513 16.8393C33.6598 16.8011 33.6644 16.7617 33.6644 16.7215C33.6644 16.3073 33.3322 15.9716 32.9222 15.9716C32.8825 15.9716 32.8437 15.9764 32.8056 15.9849C32.6546 16.0082 32.5092 16.0785 32.3928 16.196C32.2236 16.3669 32.1532 16.5998 32.1814 16.8221C32.1848 16.9179 32.1939 16.9255 32.2083 16.9473C32.2126 16.9621 32.2176 16.9766 32.2231 16.9912L31.3028 17.9209V19.4482C31.2738 19.4615 31.2457 19.4766 31.2188 19.4935C31.0074 19.6165 30.8665 19.8151 30.8665 20.1336C30.8665 20.1629 30.8688 20.1926 30.873 20.2221C30.9094 20.5217 31.1206 20.7666 31.4004 20.8492C31.4665 20.8713 31.5364 20.8834 31.6086 20.8834C31.6809 20.8834 31.751 20.8713 31.8169 20.8492ZM43.9229 18.7482L41.9559 20.7648H36.082L34.0186 22.8352C33.7477 22.7293 33.4286 22.7867 33.2099 23.0076C32.9271 23.2934 32.915 23.7488 33.173 24.0493L33.1736 24.0497L33.183 24.0607L33.1853 24.0632L33.1963 24.0751L33.2099 24.0892L33.2238 24.1029L33.2357 24.1141L33.2381 24.1163L33.249 24.1259L33.2494 24.1265C33.5467 24.3874 33.9975 24.3748 34.2802 24.0892C34.4988 23.8683 34.5557 23.5459 34.4509 23.2722L36.3352 21.3826H42.209L44.3555 19.1849C44.6264 19.2907 44.9454 19.2332 45.164 19.0124C45.4467 18.7266 45.4588 18.2713 45.2007 17.9709L45.2003 17.9703L45.1908 17.9595L45.1886 17.9569L45.1775 17.9449L45.164 17.9308L45.15 17.9171L45.1381 17.9059L45.1357 17.9037L45.1248 17.8941L45.1243 17.8937C44.8271 17.6328 44.3762 17.6452 44.0936 17.9308C43.8749 18.1518 43.8181 18.4744 43.9229 18.7482ZM40.462 16.6329C40.0526 16.6329 39.7208 16.9681 39.7208 17.3817C39.7208 17.6852 39.8994 17.9463 40.1562 18.0639V18.9684H39.15H34.9832L34.4309 19.5264C34.3276 19.4741 34.211 19.4449 34.0878 19.4449C33.6629 19.4449 33.3185 19.7929 33.3185 20.2223C33.3185 20.6517 33.6629 20.9998 34.0878 20.9998C34.5127 20.9998 34.8572 20.6517 34.8572 20.2223C34.8572 20.1454 34.8462 20.0715 34.8256 20.0014L35.2363 19.5864H39.15H40.7677V18.0639C41.0245 17.9463 41.2031 17.6852 41.2031 17.3817C41.2031 16.9681 40.8713 16.6329 40.462 16.6329ZM37.273 14.0744C37.2328 14.1197 37.1988 14.1689 37.1714 14.2206C37.1313 14.2953 37.1034 14.3769 37.0919 14.4631C37.0582 14.6904 37.128 14.9301 37.301 15.1051C37.5908 15.3979 38.0608 15.3979 38.3505 15.1051C38.4221 15.0329 38.4759 14.9494 38.5122 14.8604H41.039L42.3473 16.1825C42.341 16.198 42.3354 16.2139 42.3304 16.2299C42.3188 16.2472 42.311 16.2582 42.307 16.3233C42.2642 16.5578 42.3326 16.809 42.5121 16.9903C42.7826 17.2639 43.2105 17.2818 43.5019 17.0445C43.6765 16.9072 43.7888 16.693 43.7888 16.4522C43.7888 16.3793 43.7735 16.309 43.7471 16.2424C43.7128 16.1279 43.6511 16.0202 43.5617 15.9298C43.4489 15.8158 43.3089 15.7464 43.1628 15.721C43.1208 15.7088 43.0814 15.7023 43.0467 15.7023C42.7955 15.7023 42.866 15.7194 42.7845 15.7504L41.2922 14.2423H38.5046C38.388 13.9823 38.1834 13.8016 37.828 13.8016C37.6296 13.8016 37.4212 13.9063 37.276 14.0712L37.2747 14.0726L37.273 14.0744ZM44.7979 20.5475C44.5812 20.7663 44.5245 21.0855 44.6275 21.3571L43.3623 22.6354H39.746C39.6294 22.3754 39.425 22.1944 39.0696 22.1944C38.7142 22.1944 38.3274 22.5302 38.3274 22.9444C38.3274 23.3585 38.7142 23.6943 39.0696 23.6943C39.425 23.6943 39.6294 23.5134 39.746 23.2534H43.6154L45.0598 21.7939C45.3286 21.898 45.6445 21.8406 45.861 21.6218C46.0093 21.472 46.0826 21.2753 46.0812 21.0789V21.0749C46.0812 20.6607 45.7491 20.3249 45.3391 20.3249H45.3352C45.1409 20.3235 44.946 20.3977 44.7979 20.5475ZM35.8559 23.4352C35.6391 23.6543 35.5822 23.9738 35.6855 24.2454L34.9221 25.0167L34.833 27.3726C34.5644 27.4854 34.3754 27.7021 34.3754 28.0654C34.3754 28.4284 34.7078 28.8152 35.1176 28.8152C35.5276 28.8152 35.8598 28.4207 35.8598 28.0654C35.8598 27.71 35.6894 27.5124 35.4422 27.3906L35.5241 25.2822L36.1178 24.6824C36.3868 24.7866 36.7029 24.7293 36.9197 24.5101C37.0681 24.3602 37.1415 24.1632 37.14 23.9666V23.9625C37.14 23.5483 36.8077 23.2126 36.3979 23.2126H36.3937C36.1992 23.2112 36.0043 23.2853 35.8559 23.4352ZM40.7428 24.4291C40.5979 24.5757 40.5255 24.7674 40.5255 24.9594C40.5255 25.2127 40.5423 25.1421 40.573 25.2238L40.5732 25.2243L39.8274 25.9779H38.6081C38.4917 25.7179 38.287 25.537 37.9318 25.537C37.5765 25.537 37.1896 25.8727 37.1896 26.287C37.1896 26.701 37.5765 27.0367 37.9318 27.0367C38.287 27.0367 38.4917 26.856 38.6081 26.596H40.0805L41.0055 25.6611L41.0061 25.6613C41.0869 25.6923 41.0171 25.7093 41.2677 25.7093C41.4577 25.7093 41.6476 25.6362 41.7924 25.4896C41.9373 25.3432 42.0099 25.1513 42.0099 24.9594L42.0096 24.9414V24.9402L42.0089 24.9234V24.9208L42.0079 24.9054V24.9053C42.0066 24.8877 42.0048 24.8704 42.0023 24.8531L42.002 24.8509L41.9997 24.8355L41.9992 24.8328L41.9964 24.818L41.9961 24.8153C41.994 24.804 41.9916 24.7928 41.9889 24.7818L41.9885 24.7801C41.9829 24.7574 41.9763 24.7351 41.9688 24.7132L41.9675 24.7092L41.9622 24.6948L41.9621 24.6943L41.9583 24.6845L41.9572 24.6818L41.9534 24.672L41.9495 24.6629L41.9485 24.6603L41.9442 24.6508L41.944 24.6504L41.938 24.6372L41.9353 24.6314L41.9305 24.6218L41.9286 24.618L41.9249 24.6106L41.9203 24.6019L41.9193 24.6003C41.9141 24.5906 41.9087 24.5808 41.903 24.5714L41.9019 24.5697L41.893 24.5553L41.8928 24.555L41.8847 24.5424L41.8811 24.537L41.8747 24.5278L41.8729 24.5252L41.8663 24.516L41.8625 24.5108L41.8597 24.507L41.8519 24.497L41.8507 24.4954L41.8403 24.4824L41.8312 24.4715L41.8289 24.4685L41.8189 24.4571L41.817 24.4551L41.8058 24.443L41.7924 24.4291L41.7787 24.4156L41.7667 24.4043L41.7647 24.4025L41.7534 24.3923L41.7504 24.3899L41.7397 24.3807L41.7269 24.3703L41.7254 24.3691L41.7154 24.3614L41.7118 24.3584L41.7064 24.3546L41.6974 24.3478L41.6948 24.3461L41.6856 24.3396L41.6803 24.3361L41.6678 24.3278L41.6676 24.3276L41.6533 24.3186L41.6516 24.3174C41.6423 24.3118 41.6327 24.3063 41.623 24.3009L41.6214 24.2999L41.6128 24.2953L41.6055 24.2914L41.6018 24.2896L41.5922 24.2848L41.5865 24.282L41.5735 24.2759L41.5731 24.2757L41.5636 24.2716L41.5615 24.2706L41.5489 24.2652L41.5453 24.2638L41.5312 24.2581L41.5295 24.2576L41.5152 24.2523L41.5113 24.251C41.4897 24.2433 41.4676 24.2367 41.445 24.2312L41.4434 24.2307C41.4325 24.2281 41.4214 24.2256 41.4104 24.2234L41.4078 24.2229L41.3929 24.2203L41.3902 24.2197L41.375 24.2173L41.3728 24.217C41.3558 24.2146 41.3386 24.2126 41.3212 24.2113H41.3211L41.3058 24.2105L41.3032 24.2104L41.2869 24.2097H41.2854L41.2677 24.2095C41.0779 24.2095 40.8878 24.2827 40.7428 24.4291ZM43.0106 25.783C42.7936 26.1344 42.8994 26.597 43.247 26.8163C43.5946 27.0358 44.0525 26.9289 44.2696 26.5774C44.429 26.3194 44.4144 26.0012 44.2574 25.7637L44.7542 24.96C45.0343 24.9982 45.3236 24.8719 45.4831 24.6139C45.7001 24.2625 45.5943 23.8 45.2467 23.5806C44.899 23.3613 44.4412 23.4682 44.2241 23.8194C44.0647 24.0775 44.0793 24.3957 44.2363 24.6334L43.7397 25.437C43.4595 25.3987 43.1701 25.525 43.0106 25.783ZM37.961 27.9485C37.5512 27.9485 37.2188 28.2842 37.2188 28.6983C37.2188 29.1126 37.5512 29.4483 37.961 29.4483C38.2619 29.4483 38.5209 29.2673 38.6373 29.0074H41.1195L41.5472 28.5753C41.6096 28.5925 41.6751 28.6017 41.7429 28.6017C42.1528 28.6017 42.4851 28.2659 42.4851 27.8518C42.4851 27.4375 42.1528 27.1018 41.7429 27.1018C41.3331 27.1018 41.0007 27.4375 41.0007 27.8518C41.0007 27.969 41.0274 28.08 41.0748 28.1787L40.8664 28.3893H38.6373C38.5209 28.1293 38.2619 27.9485 37.961 27.9485Z" fill="#FEFEFE"></path><path d="M51.5339 9.95996H66.089C69.7554 9.95996 73.2961 11.6031 75.4277 14.6702C76.69 16.4033 77.4337 18.3229 77.6246 20.4593L77.6248 20.4601C78.3436 27.0351 73.0258 33.2596 66.4439 33.2533C64.3078 33.2835 62.1553 33.2565 60.0172 33.2596L59.9711 38.9313L59.971 38.939C59.9711 38.9677 59.9498 38.9927 59.9226 38.9953L59.9196 38.9999L54.3707 38.999C54.3707 38.9857 54.3707 38.992 54.3707 38.9853C54.3703 38.9714 54.3709 38.958 54.3709 38.9452V32.1284C54.3706 31.4747 54.3703 31.0603 54.3709 31.0444C54.3783 30.7987 54.3773 25.3029 54.3675 14.5595H51.4941C51.4941 13.0322 51.4965 11.5978 51.4941 9.9995C51.4945 9.98879 51.4991 9.97862 51.5064 9.97141L51.5068 9.97074L51.5077 9.9704C51.5148 9.96366 51.5241 9.95996 51.5339 9.95996ZM63.3618 16.9623H61.4439V15.8121C61.7006 15.6943 61.8793 15.4331 61.8793 15.1298C61.8793 14.7161 61.5474 14.3808 61.1381 14.3808C60.7288 14.3808 60.397 14.7161 60.397 15.1298C60.397 15.4331 60.5755 15.6943 60.8322 15.8121V17.5803H63.315C63.4188 17.8673 63.6914 18.0721 64.0114 18.0721C64.4206 18.0721 64.7524 17.7368 64.7524 17.3233C64.7524 16.9097 64.4206 16.5745 64.0114 16.5745C63.7315 16.5745 63.488 16.7311 63.3618 16.9623ZM57.9352 22.2733C57.8691 22.2513 57.7992 22.239 57.7269 22.239C57.6545 22.239 57.5847 22.2513 57.5187 22.2733C57.2389 22.3559 57.0275 22.6008 56.9913 22.9004C56.987 22.9299 56.9847 22.9596 56.9847 22.989C56.9847 23.3074 57.1255 23.506 57.3369 23.629C57.3639 23.6458 57.3921 23.661 57.4211 23.6743V25.2014L58.3412 26.1313C58.3358 26.1459 58.3309 26.1604 58.3264 26.1752C58.3121 26.197 58.3029 26.2046 58.2997 26.3004C58.2715 26.5227 58.3419 26.7556 58.5111 26.9264C58.6273 27.044 58.7727 27.1143 58.9239 27.1375C58.9618 27.1461 59.0008 27.1509 59.0405 27.1509C59.4505 27.1509 59.7827 26.8151 59.7827 26.401C59.7827 26.3608 59.778 26.3214 59.7696 26.2832C59.7465 26.1304 59.6769 25.9835 59.5606 25.866C59.3915 25.6951 59.1611 25.6239 58.941 25.6524C58.8462 25.6557 58.8387 25.6648 58.8171 25.6794C58.8025 25.6839 58.7881 25.689 58.7737 25.6944L58.0327 24.9459C58.0327 24.522 58.0327 24.0982 58.0327 23.6743C58.0618 23.661 58.0898 23.6458 58.1167 23.629C58.3282 23.506 58.469 23.3074 58.469 22.989C58.469 22.9596 58.4667 22.9299 58.4624 22.9004C58.4262 22.6008 58.215 22.3559 57.9352 22.2733ZM57.9352 20.8492C58.215 20.7665 58.4262 20.5216 58.4624 20.2221C58.4667 20.1926 58.469 20.1628 58.469 20.1335C58.469 19.8151 58.3282 19.6165 58.1167 19.4935C58.0898 19.4765 58.0618 19.4614 58.0327 19.4481V18.1766L58.7737 17.428C58.7881 17.4334 58.8025 17.4385 58.8171 17.443C58.8387 17.4576 58.8462 17.4668 58.941 17.47C59.1611 17.4985 59.3915 17.4274 59.5606 17.2564C59.6769 17.139 59.7465 16.9919 59.7696 16.8393C59.778 16.801 59.7827 16.7616 59.7827 16.7214C59.7827 16.3072 59.4505 15.9716 59.0405 15.9716C59.0008 15.9716 58.9618 15.9763 58.9239 15.9848C58.7727 16.0081 58.6273 16.0785 58.5111 16.1959C58.3419 16.3668 58.2715 16.5997 58.2997 16.822C58.3029 16.9178 58.3121 16.9254 58.3264 16.9472C58.3309 16.962 58.3358 16.9765 58.3412 16.9911L57.4211 17.9208V19.4481C57.3921 19.4614 57.3639 19.4765 57.3369 19.4935C57.1255 19.6165 56.9847 19.8151 56.9847 20.1335C56.9847 20.1628 56.987 20.1926 56.9913 20.2221C57.0275 20.5216 57.2389 20.7665 57.5187 20.8492C57.5847 20.8712 57.6545 20.8833 57.7269 20.8833C57.7992 20.8833 57.8691 20.8712 57.9352 20.8492ZM70.0412 18.7481L68.0742 20.7647H62.2003L60.1369 22.8352C59.8659 22.7292 59.5467 22.7867 59.3281 23.0075C59.0454 23.2933 59.0331 23.7487 59.2913 24.0492L59.2917 24.0496L59.3012 24.0606L59.3035 24.0631L59.3145 24.075L59.3281 24.0891L59.3421 24.1028L59.3539 24.114L59.3564 24.1162L59.3671 24.1258L59.3677 24.1264C59.665 24.3873 60.1157 24.3747 60.3984 24.0891C60.6171 23.8682 60.6739 23.5458 60.5692 23.2721L62.4534 21.3825H68.3274L70.4737 19.1849C70.7446 19.2906 71.0635 19.2332 71.2821 19.0123C71.5649 18.7265 71.5772 18.2712 71.319 17.9708L71.3186 17.9702L71.309 17.9594L71.3067 17.9568L71.2958 17.9448L71.2821 17.9307L71.2681 17.917L71.2564 17.9058L71.2539 17.9036L71.2431 17.894L71.2426 17.8936C70.9452 17.6327 70.4945 17.6451 70.2118 17.9307C69.9932 18.1517 69.9362 18.4743 70.0412 18.7481ZM66.5802 16.6328C66.171 16.6328 65.8392 16.9681 65.8392 17.3816C65.8392 17.6851 66.0176 17.9462 66.2744 18.0639V18.9684H65.2683H61.1014L60.5492 19.5263C60.4457 19.4741 60.3293 19.4448 60.2061 19.4448C59.7811 19.4448 59.4366 19.7928 59.4366 20.2222C59.4366 20.6516 59.7811 20.9997 60.2061 20.9997C60.6309 20.9997 60.9753 20.6516 60.9753 20.2222C60.9753 20.1453 60.9643 20.0714 60.9439 20.0013L61.3544 19.5864H65.2683H66.886C66.886 19.0789 66.886 18.5713 66.886 18.0639C67.1428 17.9462 67.3213 17.6851 67.3213 17.3816C67.3213 16.9681 66.9894 16.6328 66.5802 16.6328ZM63.3913 14.0743C63.351 14.1197 63.3171 14.1688 63.2897 14.2205C63.2494 14.2952 63.2216 14.3769 63.21 14.463C63.1763 14.6903 63.2461 14.93 63.4193 15.1051C63.709 15.3978 64.179 15.3978 64.4688 15.1051C64.5404 15.0328 64.5941 14.9493 64.6303 14.8603H67.1572L68.4654 16.1824C68.4593 16.1979 68.4537 16.2139 68.4485 16.2298C68.4371 16.2471 68.4291 16.2581 68.4253 16.3232C68.3824 16.5578 68.4508 16.8089 68.6302 16.9902C68.901 17.2638 69.3287 17.2817 69.6201 17.0445C69.7946 16.9072 69.907 16.6929 69.907 16.4521C69.907 16.3792 69.8918 16.3089 69.8652 16.2423C69.8312 16.1278 69.7692 16.0201 69.6798 15.9297C69.5671 15.8157 69.4271 15.7463 69.281 15.721C69.2391 15.7087 69.1996 15.7022 69.1648 15.7022C68.9138 15.7022 68.9843 15.7193 68.9028 15.7503L67.4103 14.2423H64.6227C64.5063 13.9822 64.3016 13.8015 63.9464 13.8015C63.7478 13.8015 63.5395 13.9063 63.3941 14.0711L63.3928 14.0725L63.3913 14.0743ZM70.916 20.5474C70.6994 20.7662 70.6426 21.0854 70.7457 21.357L69.4806 22.6353H65.8642C65.7477 22.3753 65.5431 22.1943 65.1878 22.1943C64.8325 22.1943 64.4456 22.5301 64.4456 22.9443C64.4456 23.3584 64.8325 23.6942 65.1878 23.6942C65.5431 23.6942 65.7477 23.5133 65.8642 23.2533H69.7337L71.1781 21.7939C71.4468 21.8979 71.7626 21.8405 71.9793 21.6217C72.1274 21.4719 72.201 21.2752 72.1994 21.0788L72.1996 21.0748C72.1996 20.6606 71.8672 20.3249 71.4574 20.3249H71.4533C71.259 20.3234 71.0644 20.3976 70.916 20.5474ZM61.974 23.4351C61.7572 23.6542 61.7005 23.9737 61.8036 24.2453L61.0403 25.0166L60.9512 27.3725C60.6826 27.4853 60.4937 27.702 60.4937 28.0653C60.4937 28.4284 60.8259 28.8152 61.2359 28.8152C61.6457 28.8152 61.978 28.4206 61.978 28.0653C61.978 27.7099 61.8077 27.5123 61.5604 27.3906L61.6422 25.2821L62.2361 24.6823C62.5049 24.7865 62.8212 24.7292 63.0378 24.51C63.1863 24.3601 63.2596 24.1632 63.2581 23.9665L63.2582 23.9624C63.2582 23.5482 62.926 23.2125 62.5161 23.2125H62.5119C62.3174 23.2111 62.1225 23.2852 61.974 23.4351ZM66.8612 24.4291C66.7162 24.5756 66.6436 24.7674 66.6436 24.9593C66.6436 25.2126 66.6606 25.142 66.6912 25.2237L66.6914 25.2242L65.9456 25.9778H64.7264C64.6098 25.7179 64.4054 25.5369 64.0499 25.5369C63.6946 25.5369 63.3079 25.8726 63.3079 26.2869C63.3079 26.701 63.6946 27.0366 64.0499 27.0366C64.4054 27.0366 64.6098 26.8559 64.7264 26.5959H66.1986L67.1238 25.6611L67.1242 25.6612C67.205 25.6923 67.1352 25.7092 67.3858 25.7092C67.5758 25.7092 67.7658 25.6361 67.9107 25.4896C68.0556 25.3431 68.128 25.1512 68.128 24.9593L68.1278 24.9413V24.9401L68.1272 24.9234L68.127 24.9207L68.1261 24.9053V24.9052C68.125 24.8877 68.123 24.8703 68.1206 24.853L68.1204 24.8508L68.1178 24.8354L68.1174 24.8327L68.1148 24.8179L68.1144 24.8152C68.1121 24.8039 68.1097 24.7927 68.1071 24.7817L68.1066 24.78C68.1012 24.7573 68.0946 24.735 68.0871 24.7131L68.0857 24.7091L68.0805 24.6947L68.0802 24.6942L68.0766 24.6844L68.0755 24.6817L68.0716 24.672L68.0678 24.6628L68.0667 24.6602L68.0625 24.6507L68.0622 24.6503L68.0562 24.6371L68.0534 24.6313L68.0488 24.6217L68.0468 24.6179L68.043 24.6105L68.0384 24.6018L68.0376 24.6002C68.0323 24.5905 68.0268 24.5808 68.0211 24.5713L68.0201 24.5696L68.0112 24.5552L68.0109 24.5549L68.0028 24.5424L67.9993 24.537L67.9929 24.5277L67.9912 24.5251L67.9845 24.5159L67.9806 24.5107L67.9778 24.5069L67.9701 24.4969L67.9688 24.4953L67.9585 24.4823L67.9496 24.4714L67.947 24.4685L67.937 24.457L67.9353 24.4551L67.924 24.4429L67.9107 24.4291L67.897 24.4155L67.8848 24.4042L67.883 24.4024L67.8716 24.3922L67.8688 24.3898L67.858 24.3806L67.8452 24.3702L67.8436 24.369L67.8336 24.3613L67.8299 24.3583L67.8247 24.3545L67.8155 24.3477L67.813 24.3461L67.8038 24.3395L67.7986 24.336L67.7862 24.3277L67.7858 24.3275L67.7716 24.3185L67.77 24.3174C67.7604 24.3117 67.7509 24.3062 67.7413 24.3009L67.7396 24.2998L67.731 24.2952L67.7238 24.2914L67.7199 24.2895L67.7106 24.2848L67.7048 24.2819L67.6918 24.2759L67.6912 24.2757L67.6818 24.2715L67.6796 24.2705L67.6671 24.2651L67.6634 24.2637L67.6493 24.258L67.6478 24.2575L67.6334 24.2522L67.6295 24.2509C67.608 24.2432 67.5858 24.2366 67.5634 24.2311L67.5617 24.2307C67.5506 24.228 67.5398 24.2255 67.5286 24.2233L67.5259 24.2228L67.5112 24.2202L67.5086 24.2196L67.4933 24.2173L67.491 24.2169C67.474 24.2146 67.4568 24.2125 67.4395 24.2113H67.4392L67.4242 24.2105L67.4215 24.2103L67.405 24.2096H67.4038L67.3858 24.2094C67.1962 24.2094 67.006 24.2826 66.8612 24.4291ZM69.129 25.7829C68.9117 26.1343 69.0176 26.5969 69.3652 26.8162C69.7129 27.0357 70.1706 26.9288 70.3877 26.5773C70.5472 26.3193 70.5325 26.0011 70.3757 25.7636L70.8723 24.9599C71.1526 24.9981 71.4419 24.8718 71.6012 24.6138C71.8184 24.2624 71.7126 23.7999 71.3648 23.5805C71.0172 23.3612 70.5594 23.4681 70.3423 23.8193C70.1828 24.0774 70.1976 24.3956 70.3544 24.6333L69.8578 25.4369C69.5778 25.3986 69.2883 25.5249 69.129 25.7829ZM64.0793 27.9485C63.6693 27.9485 63.3371 28.2841 63.3371 28.6982C63.3371 29.1125 63.6693 29.4482 64.0793 29.4482C64.3801 29.4482 64.6392 29.2672 64.7556 29.0073H67.2378L67.6654 28.5752C67.7277 28.5925 67.7934 28.6016 67.8612 28.6016C68.271 28.6016 68.6034 28.2658 68.6034 27.8517C68.6034 27.4374 68.271 27.1018 67.8612 27.1018C67.4512 27.1018 67.119 27.4374 67.119 27.8517C67.119 27.9689 67.1457 28.08 67.1931 28.1786L66.9847 28.3892H64.7556C64.6392 28.1292 64.3801 27.9485 64.0793 27.9485Z" fill="#FEFEFE"></path><path d="M52.3047 11.6601H65.9186C66.4817 11.6459 67.0319 11.6768 67.5688 11.7534C68.1085 11.8304 68.6355 11.9534 69.1499 12.1219C69.9802 12.3943 70.751 12.7654 71.4618 13.2355C72.1714 13.7049 72.8221 14.2738 73.4136 14.9418C74.1059 15.7234 74.6548 16.5645 75.0606 17.4648C75.4666 18.366 75.7293 19.3259 75.8482 20.3444C75.928 21.0267 75.9361 21.7069 75.8726 22.3844C75.8092 23.0616 75.674 23.7344 75.4677 24.4028C75.3969 24.6318 75.3164 24.8614 75.2264 25.0906C75.1368 25.3189 75.0393 25.5426 74.9343 25.7612C74.4886 26.6876 73.9284 27.5106 73.2542 28.2307C72.5802 28.9504 71.794 29.5654 70.8956 30.0752C70.3578 30.3805 69.8 30.6294 69.223 30.8219C68.6471 31.0137 68.0496 31.1496 67.4315 31.2293C67.2572 31.2516 67.0496 31.2685 66.8092 31.2794C66.5638 31.2907 66.2907 31.2963 65.9899 31.2963H54.5657C54.5205 31.2972 54.4233 31.2994 54.3712 31.2967L54.371 30.5595H66.0792C67.1713 30.5566 68.1966 30.3857 69.1548 30.0472C70.1122 29.7091 71.0034 29.203 71.8281 28.5292C72.4836 27.9937 73.0461 27.3903 73.5155 26.7191C73.9851 26.0479 74.3617 25.3086 74.6452 24.5017C74.723 24.28 74.7915 24.056 74.85 23.8297C74.909 23.6023 74.9596 23.3693 75.0015 23.1301C75.2005 21.99 75.2037 20.8914 75.0114 19.8343C74.8191 18.7777 74.4308 17.7605 73.8464 16.7827C73.722 16.5744 73.5923 16.3754 73.4576 16.1859C73.3222 15.9951 73.1785 15.8095 73.0272 15.6293C72.4089 14.8947 71.7084 14.2825 70.9262 13.7928C70.143 13.3026 69.2771 12.9345 68.329 12.6886C67.9752 12.5969 67.618 12.5279 67.2576 12.4819C66.9002 12.4363 66.537 12.4135 66.1684 12.4135L51.7693 12.4151C51.7458 12.4153 51.5008 12.4149 51.4955 12.4135L51.4941 11.6578C51.7697 11.6611 52.0349 11.6601 52.3047 11.6601Z" fill="#FEB856"></path><path d="M48.6636 12.4254C47.2893 12.4262 38.3894 12.4368 38.3654 12.4248C38.0275 12.4209 37.6894 12.4211 37.3513 12.4251C37.0148 12.4291 36.6762 12.4372 36.3362 12.4493C36.1411 12.456 35.9447 12.4711 35.7466 12.4948C35.5486 12.5182 35.3538 12.5497 35.1628 12.5887C34.2503 12.7759 33.4042 13.0785 32.625 13.4962C31.8472 13.913 31.136 14.4454 30.492 15.0926C30.3262 15.2591 30.1672 15.4323 30.015 15.6121C29.8635 15.791 29.7182 15.9771 29.5795 16.1707C29.1128 16.8207 28.7414 17.5045 28.465 18.2216C28.1884 18.9394 28.0064 19.6921 27.9189 20.4796C27.7018 22.4343 28.0932 24.2833 29.0933 26.0261C29.5461 26.8159 30.085 27.5093 30.7099 28.1055C31.3352 28.7025 32.0466 29.2028 32.8436 29.6065C33.5103 29.9438 34.2011 30.193 34.9155 30.3536C35.6304 30.5143 36.3695 30.5865 37.1326 30.5705H37.1351C39.348 30.5711 41.5612 30.5713 43.7743 30.5708C45.9874 30.5705 49.2772 30.5693 51.4901 30.5676L51.4899 30.5744L51.4951 31.3013V31.3129C51.4529 31.3125 51.4144 31.3137 51.3438 31.3107C51.2789 31.3081 51.193 31.3069 51.086 31.3069L36.1961 31.3063C34.978 31.2023 33.8528 30.9137 32.8208 30.4407C31.7886 29.9678 30.8504 29.3101 30.0062 28.4684C29.8344 28.2972 29.6691 28.1194 29.5106 27.9355C29.3526 27.7526 29.201 27.5629 29.056 27.3669C28.3548 26.42 27.8441 25.4078 27.5237 24.3308C27.2036 23.2542 27.0734 22.1121 27.1333 20.9053C27.1431 20.7117 27.161 20.509 27.1874 20.297C27.2127 20.0889 27.2473 19.8707 27.2904 19.6419C27.33 19.4305 27.3766 19.2219 27.4298 19.0164C27.4834 18.8096 27.5433 18.6082 27.6092 18.4124C28.0123 17.2106 28.5881 16.1516 29.336 15.2355C30.084 14.3192 31.0036 13.547 32.0948 12.9188C32.6883 12.5772 33.3171 12.3037 33.9806 12.0984C34.6428 11.8938 35.3394 11.7574 36.0701 11.6895C36.2298 11.6748 37.2872 11.6658 39.2422 11.6629C41.193 11.6598 44.9179 11.6623 48.6636 11.6707V11.678V12.4254Z" fill="#FEB856"></path></svg> 