<svg width="86" height="12" viewBox="0 0 86 12" fill="none" xmlns="http://www.w3.org/2000/svg">
<path d="M9.53291 0.12207C8.98947 0.12207 8.52754 0.350025 8.16525 0.810157L2.82138 7.62348L2.59042 0.827043C2.55872 0.350025 2.27794 0.12207 1.73449 0.138956C1.38578 0.138956 1.05519 0.244491 0.760822 0.472446C0.430226 0.704622 0.217378 0.979013 0.0996314 1.3125C0.0362296 1.48135 0 1.63332 0 1.77263L0.760822 11.3678C0.760822 11.6844 0.923855 11.8406 1.25445 11.8406C1.58504 11.8406 1.86582 11.6844 2.11037 11.3678L10.0265 1.77263C10.1262 1.62066 10.2077 1.46447 10.2711 1.3125C10.3888 0.979013 10.3888 0.704622 10.2575 0.472446C10.1081 0.244491 9.87709 0.12207 9.53291 0.12207Z" fill="white"/>
<path d="M50.9477 11.5495C50.9477 11.8703 51.1288 12.0223 51.4413 12.0223C51.7719 12.0223 52.0527 11.8703 52.3017 11.5495L60.2314 1.93739C60.331 1.8023 60.4126 1.65033 60.4624 1.49836C60.5937 1.16065 60.5756 0.886264 60.4443 0.658308C60.2948 0.426132 60.0639 0.303711 59.7197 0.303711C59.1762 0.303711 58.7143 0.535888 58.352 0.991799L53.0082 7.80513L52.7772 1.00868C52.7455 0.535888 52.4648 0.303711 51.9213 0.303711C51.5726 0.303711 51.2466 0.426132 50.9341 0.658308C50.6352 0.886264 50.4042 1.17754 50.2865 1.49836C50.2231 1.66722 50.1914 1.81919 50.1914 1.95427L50.9477 11.5495Z" fill="white"/>
<path d="M12.4998 5.91462C12.9799 4.9057 13.718 4.04876 14.7234 3.39022C15.7333 2.71902 16.7523 2.38553 17.7758 2.38553C18.8128 2.38553 19.5238 2.71902 19.9042 3.37756C20.2801 4.04876 20.2484 4.88882 19.7729 5.91462C19.2929 6.91931 18.5683 7.75937 17.5448 8.43479C16.5575 9.10599 15.5341 9.4437 14.4925 9.4437C13.4554 9.4437 12.7444 9.10599 12.3685 8.43479C11.9881 7.77625 12.0243 6.91931 12.4998 5.91462ZM13.4056 11.7655C15.1536 11.7655 16.8836 11.1998 18.6 10.0685C20.3299 8.95402 21.5663 7.5483 22.3452 5.89773C23.1196 4.24717 23.1513 2.85833 22.4901 1.74388C21.8154 0.612542 20.6107 0.046875 18.8626 0.046875C17.1146 0.046875 15.3846 0.612542 13.6682 1.74388C11.9383 2.87099 10.7019 4.26405 9.92753 5.91462C9.17124 7.56518 9.12142 8.95402 9.77808 10.0854C10.4574 11.2125 11.6575 11.7655 13.4056 11.7655Z" fill="white"/>
<path d="M21.8772 11.4742H29.4809C29.8115 11.4742 30.1375 11.3518 30.4862 11.1239C30.8168 10.8917 31.0614 10.6173 31.2108 10.2965C31.3603 9.99251 31.3784 9.71812 31.2471 9.49016C31.1112 9.2411 30.8983 9.13556 30.5678 9.13556H26.3289L34.8881 1.05582C34.9697 0.979826 35.0376 0.886956 35.0874 0.794085C35.1372 0.671665 35.1508 0.56613 35.101 0.456373C35.0376 0.367724 34.9561 0.321289 34.8202 0.321289H28.3079C27.9819 0.338174 27.6513 0.443709 27.3026 0.671665C26.9584 0.89962 26.7274 1.17824 26.5644 1.49906C26.4285 1.81989 26.4149 2.09428 26.5463 2.32223C26.6595 2.55019 26.8904 2.65994 27.221 2.65994H30.2372L21.8455 10.7102C21.7322 10.8326 21.6507 10.9255 21.6009 11.031C21.4651 11.3223 21.5511 11.4742 21.8772 11.4742Z" fill="white"/>
<path d="M44.5346 5.89704C44.0546 6.90595 43.3119 7.74601 42.3246 8.41721C41.3193 9.07575 40.2958 9.40924 39.2587 9.40924C38.2171 9.40924 37.5106 9.07575 37.1302 8.41721C36.7498 7.74601 36.786 6.90595 37.2616 5.89704C37.7416 4.87546 38.4843 4.03118 39.4897 3.35998C40.495 2.70566 41.5004 2.36795 42.5375 2.36795C43.5791 2.36795 44.2855 2.70566 44.666 3.35998C45.0464 4.03118 45.0101 4.87546 44.5346 5.89704ZM47.2564 1.70942C46.5771 0.594964 45.377 0.0292969 43.6289 0.0292969C41.8808 0.0292969 40.1463 0.594964 38.4345 1.7263C36.7045 2.85764 35.4637 4.24647 34.6893 5.89704C33.933 7.5476 33.8831 8.93644 34.5398 10.0678C35.2191 11.1823 36.4237 11.7479 38.1673 11.7479C39.9154 11.7479 41.6499 11.1823 43.3617 10.0509C45.0962 8.92378 46.3325 7.53072 47.1069 5.88015C47.8632 4.23381 47.9311 2.84075 47.2564 1.70942Z" fill="white"/>
<path d="M70.4866 5.86774C70.0246 6.87665 69.2819 7.72937 68.2766 8.38791C67.2712 9.05911 66.2522 9.39682 65.2106 9.39682C64.1917 9.39682 63.4807 9.05911 63.0867 8.38791C62.7063 7.72937 62.7561 6.88931 63.218 5.86774C63.6935 4.85882 64.4362 4.01877 65.4416 3.34757C66.447 2.67214 67.4705 2.35132 68.4939 2.33865C69.531 2.33865 70.242 2.67214 70.6179 3.34757C71.0164 4.00188 70.9666 4.84194 70.4866 5.86774ZM69.5808 0C67.8509 0.0168856 66.1028 0.578331 64.3864 1.70966C62.6746 2.82411 61.4201 4.23406 60.6457 5.8804C59.8849 7.5183 59.8351 8.90714 60.4963 10.0385C61.171 11.1698 62.3757 11.7355 64.1237 11.7355C65.8718 11.7355 67.6018 11.1698 69.3182 10.0385C71.0481 8.90714 72.2845 7.5183 73.0589 5.86774C73.8333 4.21717 73.8831 2.82411 73.2083 1.697C72.5335 0.578331 71.3289 0 69.5808 0Z" fill="white"/>
<path d="M85.8182 0.426384C85.7548 0.337735 85.6688 0.274414 85.5375 0.274414L79.0252 0.2913C78.6946 0.2913 78.364 0.396834 78.0198 0.641675C77.6892 0.869631 77.4401 1.14402 77.2952 1.45218C77.1458 1.77301 77.1277 2.0474 77.2635 2.27535C77.3949 2.50753 77.6077 2.61306 77.9383 2.61306H80.9725L72.5627 10.6632C72.445 10.7857 72.3635 10.8912 72.3137 10.9841C72.1823 11.2922 72.2639 11.4273 72.5944 11.4273H80.1981C80.5242 11.4273 80.8548 11.3049 81.2035 11.0769C81.5296 10.849 81.7786 10.5873 81.9281 10.2495C82.0775 9.94563 82.0911 9.67124 81.9598 9.44328C81.8466 9.21111 81.6156 9.08869 81.285 9.08869L77.0462 9.10557L85.6054 1.0216C85.705 0.945616 85.7548 0.856967 85.8001 0.764096C85.868 0.62479 85.868 0.519255 85.8182 0.426384Z" fill="white"/>
</svg>
