<svg width="232" height="65" viewBox="0 0 232 65" fill="none" xmlns="http://www.w3.org/2000/svg">
<mask id="mask0_10_5" style="mask-type:alpha" maskUnits="userSpaceOnUse" x="0" y="0" width="232" height="65">
<g clip-path="url(#clip0_10_5)">
<path d="M12.4527 2.82341C11.9126 2.62508 11.2825 2.42675 10.6524 2.32758C10.1123 2.22842 9.66221 2.12925 9.12212 2.03009V0.245117H36.577V2.03009C36.0369 2.03009 35.5869 2.12925 35.0468 2.22842C34.5067 2.32758 33.8765 2.52591 33.5165 2.52591C33.0664 2.62508 32.6163 3.02174 32.3463 3.51756C32.1662 4.01339 32.0762 4.50921 32.0762 5.00504V28.6063C32.0762 29.1021 32.1662 29.5979 32.3463 30.0938C32.6163 30.5896 32.9764 30.8871 33.5165 31.0854C34.0566 31.2837 34.5067 31.3829 35.0468 31.4821C35.6769 31.5812 36.217 31.6804 36.667 31.7796V33.5645H20.0141V31.6804C20.3741 31.6804 20.9142 31.5812 21.6344 31.4821C22.0844 31.4821 22.6245 31.3829 23.0746 31.1846C23.5247 30.9863 23.9748 30.6888 24.2448 30.1929C24.4249 29.6971 24.6049 29.2013 24.6049 28.7055V2.52591H17.2236C17.1336 7.38499 16.5935 12.3432 15.6933 17.1032C15.0632 20.5739 14.073 23.8464 12.6328 27.0197C11.6426 29.2013 10.2923 31.1846 8.67204 32.7712C7.59184 33.7629 6.2416 34.3579 4.80134 34.5562C3.9912 34.5562 3.18105 34.457 2.46092 34.1595C1.92083 33.862 1.47075 33.5645 1.11068 33.0687C0.750614 32.6721 0.57059 32.1762 0.390557 31.5812C0.300541 31.0854 0.210524 30.5896 0.210524 30.0938C0.120508 28.8046 0.570579 27.5155 1.47074 26.623C2.28089 25.8297 3.36109 25.433 4.44128 25.433C5.25142 25.433 6.06157 25.7305 6.69168 26.3255C7.50182 26.9205 8.22196 27.6146 8.85207 28.408C9.5722 27.218 10.1123 26.028 10.5624 24.6397C11.2825 23.0531 11.8226 21.3673 12.1827 19.5823C12.7228 17.599 13.1729 15.6157 13.4429 13.6324C13.803 11.4508 13.983 9.26913 13.893 7.0875C13.893 6.19501 13.803 5.30253 13.6229 4.50921C13.5329 3.71589 13.0828 3.1209 12.4527 2.82341ZM62.4117 28.0113C61.8716 28.9038 61.2414 29.7963 60.6113 30.4904C59.8912 31.2837 59.0811 31.9779 58.1809 32.4737C57.2807 33.0687 56.2906 33.4654 55.3004 33.862C54.2202 34.1595 53.05 34.3579 51.8798 34.2587C49.9894 34.2587 48.0991 33.9612 46.3888 33.267C44.9485 32.6721 43.6883 31.7796 42.6081 30.5896C41.6179 29.4988 40.8078 28.1105 40.3577 26.7222C39.8176 25.1355 39.6376 23.4497 39.6376 21.7639C39.6376 20.1773 39.9076 18.5906 40.4477 17.2023C40.9878 15.7149 41.708 14.4257 42.6981 13.3349C43.7783 12.1449 45.0386 11.2524 46.3888 10.6574C48.0091 9.96328 49.7194 9.56662 51.4297 9.66579C53.14 9.56662 54.7603 9.86412 56.3806 10.4591C57.5508 10.9549 58.631 11.6491 59.6211 12.6407C60.4313 13.5332 61.0614 14.624 61.4215 15.7149C61.7815 16.9048 61.9616 18.194 61.9616 19.5823V21.1689H47.2889C47.2889 24.3422 47.829 26.8213 48.9993 28.5071C50.1695 30.1929 51.8798 30.9863 54.4002 30.9863C55.6604 30.9863 56.9207 30.5896 58.0009 29.7963C59.081 29.003 60.0712 28.0113 60.7914 26.7222L62.4117 28.0113ZM54.2202 19.0865C54.2202 18.0948 54.1302 17.2023 54.0402 16.2107C53.9501 15.4174 53.8601 14.5249 53.5901 13.8307C53.41 13.2357 53.05 12.6407 52.5999 12.1449C52.1498 11.7483 51.5197 11.5499 50.9796 11.6491C49.8094 11.6491 48.8192 12.3432 48.2791 13.4341C47.469 15.219 47.1089 17.2023 47.1989 19.2848L54.2202 19.0865ZM86.536 13.1366C87.6162 14.2274 88.4263 15.5165 88.9664 17.004C89.5065 18.5906 89.7765 20.1773 89.7765 21.8631C89.7765 23.5489 89.5065 25.2347 88.9664 26.8213C88.4263 28.3088 87.6162 29.6971 86.536 30.7879C85.3658 31.9779 84.0155 32.8704 82.4852 33.4654C80.7749 34.1595 78.8846 34.457 77.0843 34.457C75.464 34.457 73.7537 34.1595 72.2234 33.5645C70.7831 33.0687 69.5229 32.1762 68.3527 31.0854C67.2725 29.9946 66.3723 28.7055 65.7422 27.218C65.1121 25.5322 64.7521 23.8464 64.7521 21.9622C64.7521 20.2764 65.0221 18.4915 65.5622 16.9048C66.1023 15.4174 66.9125 14.029 67.9927 12.9382C69.1629 11.7483 70.5131 10.9549 71.9533 10.4591C73.6636 9.86412 75.464 9.56662 77.2643 9.56662C79.0646 9.56662 80.8649 9.86412 82.5752 10.4591C84.0155 11.0541 85.3658 11.9466 86.536 13.1366ZM80.9549 29.3996C81.315 28.408 81.5851 27.3171 81.6751 26.2263C81.8551 24.838 81.9451 23.3506 81.9451 21.8631C81.9451 20.5739 81.8551 19.384 81.6751 18.0948C81.5851 16.9048 81.405 15.814 81.045 14.7232C80.7749 13.8307 80.2348 13.0374 79.6047 12.3432C78.9746 11.7483 78.0744 11.4508 77.2643 11.4508C76.3641 11.4508 75.464 11.7483 74.8339 12.4424C74.2038 13.0374 73.7537 13.9299 73.4836 14.8224C73.1236 15.814 72.9435 16.9048 72.8535 17.9956C72.7635 19.1856 72.6735 20.4748 72.6735 21.7639C72.6735 23.5489 72.7635 24.838 72.8535 26.028C72.9435 27.218 73.2136 28.3088 73.5736 29.3996C73.8437 30.2921 74.3838 31.0854 75.0139 31.7796C75.644 32.3746 76.5442 32.6721 77.3543 32.6721C78.1644 32.6721 78.8846 32.4737 79.5147 31.8787C80.2348 31.1846 80.6849 30.3913 80.9549 29.3996ZM121.282 33.6637H108.14V31.8787C108.41 31.7796 108.68 31.7796 109.04 31.6804C109.4 31.5812 109.67 31.4821 110.03 31.3829C110.3 31.1846 110.57 30.8871 110.75 30.5896C110.93 30.1929 111.02 29.6971 111.02 29.2013V22.4581H103.009V29.2013C103.009 29.6971 103.099 30.1929 103.279 30.5896C103.459 30.9863 103.729 31.1846 103.999 31.4821C104.269 31.6804 104.539 31.7796 104.809 31.7796C105.169 31.8787 105.529 31.9779 105.889 31.9779V33.7629H92.7471V32.0771C93.1071 32.0771 93.4672 31.9779 93.8273 31.9779C94.1873 31.9779 94.4574 31.8787 94.8174 31.6804C95.2675 31.5812 95.5376 31.2837 95.8076 30.8871C95.9876 30.4904 96.0776 29.9946 96.0776 29.4988V14.7232C96.0776 14.2274 95.9876 13.7316 95.8076 13.3349C95.6276 12.9382 95.2675 12.6407 94.9074 12.5416C94.5474 12.4424 94.1873 12.3432 93.8273 12.2441C93.4672 12.1449 93.1972 12.1449 92.8371 12.1449V10.4591H105.979V12.2441C105.619 12.3432 105.349 12.3432 104.989 12.4424C104.719 12.5416 104.359 12.6407 104.089 12.8391C103.729 13.0374 103.549 13.3349 103.369 13.7316C103.189 14.1282 103.099 14.624 103.099 15.0207V20.2764H111.02V14.9215C111.02 14.5249 110.93 14.029 110.84 13.6324C110.66 13.2357 110.39 12.9382 110.12 12.7399C109.85 12.5416 109.49 12.4424 109.13 12.3432C108.86 12.2441 108.5 12.2441 108.23 12.1449V10.3599H121.372V12.1449C121.012 12.1449 120.562 12.2441 120.292 12.2441C119.932 12.2441 119.662 12.3432 119.302 12.5416C118.942 12.6407 118.582 12.9382 118.402 13.3349C118.222 13.8307 118.042 14.3265 118.042 14.8224V29.5979C118.042 30.0938 118.132 30.5896 118.312 30.9863C118.492 31.3829 118.852 31.6804 119.302 31.7796C119.662 31.8787 119.932 31.9779 120.202 32.0771C120.562 32.1762 120.922 32.1762 121.372 32.1762L121.282 33.6637ZM148.557 33.1679C147.837 33.5645 147.027 33.862 146.307 34.0604C145.406 34.3579 144.506 34.457 143.516 34.3579C142.166 34.457 140.816 34.1595 139.645 33.4654C138.835 32.8704 138.205 32.0771 137.935 30.9863H137.755C137.305 31.4821 136.765 31.9779 136.405 32.3746C135.955 32.7712 135.415 33.0687 134.965 33.3662C134.334 33.6637 133.704 33.9612 132.984 34.1595C132.174 34.3579 131.274 34.457 130.374 34.457C128.844 34.5562 127.313 33.9612 126.053 32.7712C124.883 31.7796 124.163 30.1929 124.253 28.5071C124.253 27.6146 124.343 26.7222 124.613 25.9288C124.883 25.2347 125.243 24.5405 125.783 24.0447C126.233 23.4497 126.773 23.0531 127.403 22.7556C127.943 22.3589 128.663 22.1606 129.294 21.7639C130.554 21.2681 132.084 20.7723 133.974 20.0781C135.325 19.6815 136.675 19.1856 137.935 18.5906V16.409C137.935 15.9132 137.935 15.4174 137.845 14.8224C137.845 14.2274 137.665 13.7316 137.485 13.1366C137.305 12.6407 136.945 12.1449 136.495 11.8474C135.955 11.4508 135.415 11.2524 134.785 11.3516C134.244 11.3516 133.704 11.4508 133.164 11.6491C132.804 11.8474 132.444 12.0457 132.084 12.2441C132.174 12.7399 132.354 13.2357 132.444 13.7316C132.624 14.3265 132.714 14.9215 132.804 15.5165C132.804 15.814 132.714 16.2107 132.624 16.5082C132.534 16.9048 132.354 17.2023 132.084 17.4998C131.724 17.7973 131.364 18.0948 130.914 18.194C130.284 18.3923 129.654 18.4915 129.024 18.4915C128.033 18.5906 127.043 18.194 126.233 17.4998C125.603 16.9048 125.243 15.9132 125.333 15.0207C125.333 14.1282 125.693 13.2357 126.323 12.6407C127.043 11.9466 127.763 11.3516 128.663 10.8558C129.654 10.3599 130.734 9.96328 131.814 9.76495C132.894 9.56662 134.064 9.36829 135.145 9.36829C136.405 9.36829 137.665 9.46746 138.925 9.66579C140.005 9.86412 141.086 10.1616 142.076 10.7566C142.976 11.2524 143.786 12.1449 144.146 13.1366C144.686 14.4257 144.956 15.814 144.956 17.2023C144.956 18.9873 144.956 21.0698 144.866 23.5489C144.776 26.028 144.776 27.5155 144.776 28.3088C144.686 28.9038 144.866 29.4988 145.136 29.9946C145.316 30.3913 145.676 30.7879 146.037 30.9863C146.397 31.0854 146.757 31.1846 147.207 31.2837H148.557V33.0687V33.1679ZM137.935 20.8714C137.125 21.1689 136.315 21.4664 135.505 21.8631C134.785 22.1606 134.154 22.5572 133.524 23.0531C132.984 23.4497 132.534 24.0447 132.264 24.7389C131.904 25.5322 131.724 26.3255 131.814 27.218C131.724 28.2096 131.994 29.2013 132.624 29.8954C133.164 30.4904 133.884 30.7879 134.605 30.7879C135.325 30.7879 135.955 30.6888 136.585 30.2921C137.125 29.8954 137.575 29.4988 137.935 29.003V20.8714ZM176.462 22.1606C176.552 25.3339 175.472 28.408 173.491 30.6888C171.511 33.0687 168.721 34.3579 165.84 34.2587C164.76 34.2587 163.59 34.1595 162.51 33.862C161.789 33.5645 161.069 33.1679 160.439 32.7712H160.259V39.2169C160.259 39.7128 160.349 40.2086 160.619 40.7044C160.799 41.1011 161.159 41.3986 161.609 41.5969C162.149 41.7952 162.69 41.9936 163.23 41.9936C163.86 42.1919 164.4 42.1919 165.03 42.2911V44.076H149.457V42.2911C149.907 42.2911 150.357 42.1919 150.807 42.0927C151.257 41.9936 151.618 41.9936 152.068 41.7952C152.518 41.6961 152.788 41.3986 152.968 40.9027C153.148 40.5061 153.238 40.0103 153.238 39.5144V15.5165C153.148 15.0207 153.058 14.624 152.878 14.1282C152.698 13.7316 152.428 13.3349 152.068 13.0374C151.708 12.8391 151.348 12.6407 150.897 12.5416C150.447 12.3432 149.997 12.2441 149.547 12.2441V10.4591L160.079 9.86412L160.439 10.2608V12.8391L160.619 12.9382C161.519 11.9466 162.6 11.0541 163.77 10.5583C164.85 9.96328 166.02 9.66579 167.19 9.66579C169.891 9.46746 172.501 10.7566 174.212 13.1366C175.652 15.3182 176.462 18.3923 176.462 22.1606ZM168.811 22.2597C168.811 21.1689 168.721 19.9789 168.541 18.8881C168.451 17.8965 168.181 16.9048 167.73 16.0123C167.37 15.219 166.83 14.5249 166.2 14.029C165.48 13.5332 164.67 13.2357 163.86 13.2357C163.05 13.2357 162.329 13.3349 161.609 13.7316C161.069 14.029 160.529 14.5249 160.169 15.1199V28.5071C160.259 28.9038 160.439 29.3004 160.619 29.6971C160.799 30.0938 161.069 30.4904 161.339 30.8871C161.609 31.3829 162.059 31.6804 162.6 31.8787C163.05 32.0771 163.59 32.1762 164.13 32.1762C165.57 32.1762 166.92 31.1846 167.55 29.6971C168.451 27.4163 168.901 24.838 168.811 22.2597ZM180.783 31.3829C182.313 28.9038 183.573 26.2263 184.383 23.3506C185.284 20.7723 185.824 18.0948 185.914 15.4174C185.914 14.8224 185.824 14.2274 185.644 13.6324C185.464 13.2357 185.104 12.9382 184.743 12.7399C184.293 12.5416 183.843 12.3432 183.393 12.3432C182.853 12.1449 182.403 12.1449 181.863 12.0457V10.2608H203.557V12.0457C203.107 12.0457 202.747 12.1449 202.477 12.1449C202.117 12.1449 201.846 12.2441 201.486 12.4424C201.126 12.5416 200.766 12.8391 200.586 13.2357C200.406 13.7316 200.226 14.2274 200.226 14.7232V29.3004C200.136 29.8954 200.316 30.4904 200.586 31.0854C201.036 31.4821 201.667 31.6804 202.297 31.5812H204.007V41.2002H202.657C202.477 40.7044 202.207 40.1094 201.937 39.3161C201.576 38.4236 201.126 37.6303 200.586 36.837C200.046 36.0437 199.506 35.3495 198.786 34.6554C198.156 34.0604 197.256 33.6637 196.446 33.6637C195.815 33.5645 195.275 33.5645 194.645 33.5645H187.354C186.814 33.5645 186.184 33.5645 185.644 33.6637C184.834 33.7629 184.023 34.1595 183.393 34.6554C182.043 35.9445 180.963 37.5311 180.243 39.3161C179.883 40.1094 179.703 40.8036 179.523 41.2002H178.172V31.3829H180.783ZM183.483 31.3829H191.495C192.035 31.4821 192.485 31.3829 192.935 30.9863C193.205 30.5896 193.295 30.1929 193.295 29.6971V12.5416H188.524C188.434 15.9132 188.074 19.2848 187.264 22.5572C186.454 25.7305 185.194 28.7055 183.483 31.3829ZM228.491 13.0374C229.571 14.1282 230.382 15.4174 230.922 16.9048C231.462 18.4915 231.732 20.0781 231.732 21.7639C231.732 23.4497 231.462 25.1355 230.922 26.7222C230.382 28.2096 229.571 29.5979 228.491 30.6888C227.321 31.8787 225.971 32.7712 224.441 33.3662C222.73 34.0604 220.84 34.3579 219.04 34.3579C217.419 34.3579 215.709 34.0604 214.179 33.4654C212.738 32.9696 211.388 32.0771 210.218 30.9863C209.138 29.8954 208.238 28.6063 207.608 27.1188C206.977 25.5322 206.617 23.7472 206.617 21.9622C206.617 20.2764 206.887 18.4915 207.428 16.9048C207.968 15.4174 208.868 14.1282 209.948 13.0374C211.118 11.8474 212.468 11.0541 213.909 10.5583C215.619 9.96328 217.419 9.66579 219.22 9.66579C221.02 9.66579 222.82 9.96328 224.531 10.5583C225.971 11.0541 227.321 11.9466 228.491 13.0374ZM222.91 29.3996C223.27 28.408 223.54 27.3171 223.63 26.2263C223.81 24.838 223.9 23.3506 223.9 21.8631C223.9 20.5739 223.81 19.384 223.63 18.0948C223.54 16.9048 223.36 15.814 223 14.7232C222.73 13.8307 222.19 13.0374 221.56 12.3432C220.93 11.7483 220.03 11.4508 219.22 11.4508C218.319 11.4508 217.419 11.7483 216.789 12.4424C216.159 13.0374 215.709 13.9299 215.439 14.8224C215.079 15.814 214.899 16.9048 214.809 17.9956C214.719 19.1856 214.629 20.4748 214.629 21.7639C214.629 23.5489 214.719 24.838 214.809 26.028C214.899 27.218 215.169 28.3088 215.529 29.3996C215.799 30.2921 216.339 31.0854 216.969 31.7796C217.599 32.3746 218.499 32.6721 219.31 32.6721C220.12 32.6721 220.84 32.4737 221.47 31.8787C222.1 31.0854 222.55 30.2921 222.91 29.3996ZM0.300544 49.0343H5.34144L7.14176 52.2075L9.21213 49.0343H13.803L10.1123 54.4883L14.163 60.5374H9.21213L7.14176 56.7691L4.71133 60.5374H0.210524L4.26124 54.4883L0.300544 49.0343ZM14.9732 54.885C14.9732 53.1992 15.5133 51.6126 16.6835 50.5217C19.564 48.1418 23.5247 48.241 26.3152 50.8192C27.2154 51.9101 27.7555 53.2984 27.6654 54.7858C27.7555 56.4716 27.1253 58.0583 25.9551 59.1491C24.6049 60.3391 22.9846 61.0332 21.2743 60.9341C19.744 61.0332 18.2138 60.5374 16.9535 59.5458C15.6933 58.3558 14.8832 56.67 14.9732 54.885ZM19.2039 54.885C19.1139 55.6783 19.2939 56.4716 19.744 57.1658C20.1041 57.6616 20.6442 57.9591 21.1843 57.9591C21.7244 57.9591 22.2645 57.7608 22.6245 57.265C23.0746 56.5708 23.2547 55.7775 23.1646 54.885C23.2547 54.0917 23.0746 53.2984 22.6245 52.6042C22.2645 52.1084 21.7244 51.9101 21.1843 51.9101C20.5542 51.9101 20.0141 52.2075 19.654 52.7034C19.384 53.3975 19.2039 54.0917 19.2039 54.885ZM33.3365 49.4309C33.9666 48.9351 34.6867 48.7368 35.4068 48.8359C37.1171 48.7368 38.8274 49.3318 40.0877 50.6209C41.1679 51.7117 41.708 53.2984 41.708 54.885C41.708 56.4716 41.1679 58.0583 40.0877 59.2483C38.8274 60.5374 37.0271 61.2316 35.3168 61.0332C33.6065 61.1324 31.8962 60.5374 30.636 59.2483C29.5558 58.0583 29.0157 56.075 29.0157 53.3975C28.9257 51.3151 29.3757 49.1334 30.3659 47.3485C31.2661 45.861 32.7063 44.9685 34.3266 44.8693H35.5869C36.7571 44.7702 37.3872 44.671 37.4772 44.3735H40.8078C40.8078 46.456 39.6376 47.5468 37.3872 47.646C36.307 47.646 35.3168 47.7451 34.3266 48.0426C33.9666 48.3401 33.6065 48.8359 33.3365 49.4309ZM35.4968 57.86C36.127 57.86 36.6671 57.6616 37.0271 57.0666C37.7473 55.6783 37.7473 53.9925 37.0271 52.6042C36.6671 52.1084 36.127 51.8109 35.4968 51.8109C34.8667 51.7117 34.2366 52.1084 33.8765 52.7034C33.5165 53.3975 33.3365 54.0917 33.3365 54.885C33.2464 55.6783 33.5165 56.4716 33.8765 57.0666C34.2366 57.5625 34.8667 57.86 35.4968 57.86ZM47.559 49.4309C48.1891 48.9351 48.9092 48.7368 49.6294 48.8359C51.3397 48.7368 53.05 49.3318 54.3102 50.6209C55.3904 51.7117 55.9305 53.2984 55.9305 54.885C55.9305 56.4716 55.3904 58.0583 54.3102 59.2483C53.05 60.5374 51.2497 61.2316 49.5393 61.0332C47.829 61.1324 46.1187 60.5374 44.8585 59.2483C43.7783 58.0583 43.2382 56.075 43.2382 53.3975C43.1482 51.3151 43.5983 49.1334 44.5885 47.3485C45.4886 45.861 46.9289 44.9685 48.5492 44.8693H49.8094C50.9796 44.7702 51.6097 44.671 51.6997 44.3735H55.0303C55.0303 46.456 53.8601 47.5468 51.6097 47.646C50.5295 47.646 49.5393 47.7451 48.5492 48.0426C48.0991 48.3401 47.739 48.8359 47.559 49.4309ZM49.6294 57.86C50.2595 57.86 50.7996 57.5625 51.1596 57.0666C51.8798 55.6783 51.8798 53.9925 51.1596 52.6042C50.7996 52.1084 50.2595 51.8109 49.6294 51.8109C48.9993 51.7117 48.3691 52.1084 48.0091 52.7034C47.649 53.3975 47.469 54.0917 47.469 54.885C47.379 55.6783 47.649 56.4716 48.0091 57.0666C48.3691 57.5625 48.9993 57.86 49.6294 57.86ZM70.3331 60.6366H66.3724V54.885L62.2316 60.6366H58.1809V49.0343H62.1416V54.885L66.3724 49.1334H70.3331V60.6366ZM72.2234 53.1H78.3445V56.5708H72.2234V53.1ZM89.1464 52.2075H84.4656V60.5374H80.2348V49.0343H89.1464V52.2075ZM103.189 60.5374H99.2282V54.885L95.0875 60.6366H91.0368V49.0343H94.9975V54.885L99.2282 49.1334H103.189V60.5374ZM117.501 60.5374H113.271V52.2075H110.03V60.5374H105.799V49.0343H117.501V60.5374ZM132.354 55.8767H123.803C123.803 56.4716 123.983 56.9675 124.343 57.4633C124.793 57.9591 125.333 58.2566 125.963 58.2566C126.413 58.2566 126.773 58.1575 127.223 57.9591C127.493 57.7608 127.763 57.5625 127.943 57.265L132.084 57.6616C131.544 58.7524 130.734 59.5458 129.834 60.1407C128.573 60.7357 127.313 61.0332 125.963 60.9341C124.793 61.0332 123.623 60.8349 122.452 60.3391C121.552 59.8433 120.832 59.1491 120.382 58.2566C119.032 55.7775 119.392 52.6042 121.192 50.5217C122.452 49.3318 124.073 48.7368 125.693 48.8359C126.953 48.7368 128.213 49.0343 129.384 49.6293C130.284 50.1251 131.004 50.8192 131.454 51.8109C131.994 53.0009 132.264 54.29 132.174 55.5792V55.8767H132.354ZM128.033 53.7942C128.033 53.1 127.763 52.505 127.403 52.0092C127.043 51.6126 126.503 51.4142 126.053 51.5134C125.423 51.5134 124.793 51.8109 124.433 52.4059C124.163 52.9017 123.983 53.3975 123.983 53.9925L128.033 53.7942ZM134.244 64.9998V49.0343H138.205V50.8192C138.655 50.2243 139.195 49.7284 139.735 49.3318C140.366 49.0343 141.086 48.8359 141.806 48.8359C143.156 48.7368 144.416 49.4309 145.226 50.6209C146.037 51.9101 146.487 53.4967 146.487 55.0833C146.577 56.67 146.127 58.2566 145.226 59.5458C144.416 60.5374 143.156 61.0332 141.896 61.0332C141.266 61.0332 140.636 60.9341 140.096 60.7357C139.555 60.5374 139.105 60.1408 138.655 59.7441V64.9998H134.244ZM138.475 54.885C138.385 55.6783 138.655 56.3725 139.015 56.9675C139.375 57.3641 139.825 57.6616 140.366 57.6616C140.816 57.6616 141.266 57.4633 141.626 57.0666C141.986 56.4716 142.166 55.6783 142.076 54.885C142.166 54.1908 141.986 53.3975 141.626 52.8025C141.356 52.4059 140.816 52.1084 140.366 52.1084C139.825 52.1084 139.375 52.4059 139.015 52.8025C138.565 53.3975 138.385 54.0917 138.475 54.885ZM163.68 60.5374H160.079V53.2984L157.469 60.5374H154.948L152.158 53.2984V60.5374H148.557V49.0343H153.688L156.298 55.6783L158.729 49.0343H163.77L163.68 60.5374ZM170.341 52.8025L166.29 52.4059C166.38 51.8109 166.65 51.2159 166.92 50.6209C167.28 50.2243 167.64 49.8276 168.181 49.5301C168.721 49.2326 169.261 49.0343 169.801 49.0343C170.521 48.9351 171.241 48.8359 171.961 48.8359C172.951 48.8359 174.032 48.9351 175.022 49.1334C175.742 49.2326 176.372 49.6293 177.002 50.1251C177.362 50.5217 177.632 51.0176 177.812 51.5134C177.992 52.0092 178.172 52.6042 178.172 53.2984V58.4549C178.172 58.8516 178.172 59.3474 178.262 59.7441C178.352 60.0416 178.532 60.4382 178.712 60.9341H174.752C174.662 60.7357 174.482 60.4382 174.392 60.2399C174.302 60.0416 174.302 59.8433 174.212 59.5458C173.672 60.0416 173.131 60.4382 172.591 60.7357C171.781 61.1324 170.881 61.2316 169.981 61.2316C168.901 61.3307 167.82 60.9341 167.01 60.2399C166.38 59.6449 165.93 58.8516 165.93 57.86C165.93 57.0666 166.2 56.2733 166.65 55.6783C167.46 54.9842 168.361 54.4883 169.441 54.3892C171.061 54.0917 172.051 53.7942 172.501 53.695L173.942 53.1992C174.032 52.8025 173.852 52.4059 173.581 52.1084C173.221 51.8109 172.861 51.7117 172.411 51.8109C171.871 51.7117 171.331 51.9101 170.881 52.1084C170.701 51.9101 170.521 52.2076 170.341 52.8025ZM173.942 55.0833C173.311 55.2817 172.771 55.48 172.141 55.6783C171.601 55.7775 171.061 56.075 170.521 56.3725C170.341 56.5708 170.161 56.8683 170.161 57.1658C170.161 57.4633 170.251 57.86 170.521 58.0583C170.791 58.3558 171.151 58.4549 171.601 58.3558C172.051 58.3558 172.501 58.2566 172.861 58.0583C173.221 57.86 173.581 57.5625 173.762 57.1658C173.942 56.7691 174.032 56.2733 174.032 55.7775L173.942 55.0833ZM180.603 64.9998V49.0343H184.563V50.8192C185.014 50.2243 185.554 49.7284 186.094 49.3318C186.724 49.0343 187.444 48.8359 188.164 48.8359C189.514 48.7368 190.775 49.4309 191.585 50.6209C192.395 51.9101 192.845 53.4967 192.845 55.0833C192.935 56.67 192.485 58.2566 191.585 59.5458C190.685 60.5374 189.514 61.0332 188.254 61.0332C187.624 61.0332 186.994 60.9341 186.454 60.7357C185.914 60.5374 185.464 60.1408 185.014 59.7441V64.9998H180.603ZM184.743 54.885C184.653 55.6783 184.923 56.3725 185.284 56.9675C185.644 57.3641 186.094 57.6616 186.634 57.6616C187.084 57.6616 187.534 57.4633 187.894 57.0666C188.254 56.4716 188.434 55.6783 188.344 54.885C188.434 54.1908 188.254 53.3975 187.894 52.8025C187.624 52.4059 187.084 52.1084 186.634 52.1084C186.094 52.1084 185.644 52.4059 185.284 52.8025C184.923 53.3975 184.743 54.1908 184.743 54.885ZM206.977 60.6366H202.207L200.586 57.4633C200.496 57.0666 200.226 56.67 199.866 56.4716C199.596 56.3725 199.236 56.2733 198.966 56.2733V60.6366H194.735V49.0343H198.966V53.1992C199.236 53.1992 199.506 53.1 199.686 52.9017C199.956 52.505 200.226 52.1084 200.406 51.6126C200.586 51.1167 200.856 50.6209 201.216 50.1251C201.486 49.8276 201.847 49.5301 202.207 49.4309C202.657 49.2326 203.197 49.1334 203.647 49.1334C204.547 49.0343 205.357 49.0343 206.257 49.0343V52.1084H206.077C205.627 52.1084 205.177 52.1084 204.817 52.2075C204.547 52.3067 204.367 52.3067 204.097 52.5051C203.827 52.8025 203.647 53.1 203.467 53.4967C203.287 53.8934 203.107 54.1909 202.927 54.4883C202.747 54.6867 202.477 54.7858 202.207 54.7858C202.657 54.7858 203.197 54.9842 203.557 55.1825C204.187 55.7775 204.637 56.3725 204.997 57.1658L206.977 60.6366ZM220.66 55.9758H212.198C212.198 56.5708 212.378 57.0666 212.738 57.5625C213.189 58.0583 213.729 58.3558 214.359 58.3558C214.809 58.3558 215.169 58.2566 215.619 58.0583C215.889 57.86 216.159 57.6616 216.339 57.3641L220.48 57.7608C219.94 58.7524 219.13 59.6449 218.229 60.2399C216.969 60.8349 215.709 61.1324 214.359 61.0332C213.189 61.1324 212.018 60.9341 210.848 60.4382C209.948 59.9424 209.228 59.2483 208.778 58.3558C207.428 55.8767 207.788 52.7034 209.588 50.6209C210.848 49.4309 212.468 48.8359 214.089 48.9351C215.349 48.8359 216.609 49.1334 217.779 49.7284C218.68 50.2243 219.4 50.9184 219.85 51.9101C220.39 53.1 220.66 54.3892 220.57 55.6783V55.9758H220.66ZM216.249 53.8934C216.249 53.1992 215.979 52.6042 215.619 52.1084C215.259 51.7117 214.719 51.5134 214.269 51.6126C213.639 51.6126 213.009 51.9101 212.648 52.5051C212.378 53.0009 212.198 53.4967 212.198 54.0917L216.249 53.8934ZM231.822 52.3067H228.761V60.6366H224.531V52.3067H221.47V49.1334H231.822C231.822 49.0343 231.822 52.3067 231.822 52.3067Z" fill="#C62829"/>
</g>
</mask>
<g mask="url(#mask0_10_5)">
<rect x="-675" y="-844" width="1273" height="1420" fill="white"/>
</g>
<defs>
<clipPath id="clip0_10_5">
<rect width="232" height="65" fill="white"/>
</clipPath>
</defs>
</svg>
